# xmcd
#
# Track frame offsets:
#	150
#	15948
#	28612
#	42677
#	56589
#	70913
#	87722
#	102867
#	114681
#	130769
#	148518
#	169786
#
# Disc length: 2438 seconds
# Revision: 3
# Processed by: cddbd v1.5.2PL0 Copyright (c) Steve Scherf et al.
# Submitted via: jack 3.1.1
#
DISCID=a509840c
DTITLE=JJ Cale - Roll On
DYEAR=2009
DGENRE=Pop/Rock
TTITLE0=Who Knew
TTITLE1=Former Me
TTITLE2=Where the Sun Don't Shine
TTITLE3=Down to Memphis
TTITLE4=Strange Days
TTITLE5=Cherry Street
TTITLE6=Fonda-Lina
TTITLE7=Leaving in the Morning
TTITLE8=Oh Mary
TTITLE9=Old Friend
TTITLE10=Roll On
TTITLE11=Bring Down the Curtain
EXTD=
EXTT0=
EXTT1=
EXTT2=
EXTT3=
EXTT4=
EXTT5=
EXTT6=
EXTT7=
EXTT8=
EXTT9=
EXTT10=
EXTT11=
PLAYORDER=
